<svg xmlns="http://www.w3.org/2000/svg" width="28" height="28" viewBox="0 0 28 28"><g><g><path fill="#fff" d="M26.257 26.832c-7.165 1.218-12.312.525-14.982-.086-.69-.138-1.36-.33-2.007-.573l-.087-.034h.003C4.254 24.243.749 19.412.749 13.749.749 6.43 6.6.498 13.816.498s13.067 5.932 13.067 13.25c0 1.466-.239 2.875-.673 4.193l.004-.002s-.662 2.445-.096 4.579c.273.79.614 1.232 1.078 1.783.875 1.04.841 2.222-.94 2.531zm-9.228-10.965a.867.867 0 0 0-.861-.873h-4.86a.867.867 0 0 0-.86.873c0 .482.385.873.86.873h4.86c.476 0 .86-.39.86-.873zm2.082-3.453a.867.867 0 0 0-.86-.873h-6.942a.867.867 0 0 0-.861.873c0 .483.385.874.86.874h6.942c.476 0 .861-.391.861-.874z"/></g></g></svg>