<svg xmlns="http://www.w3.org/2000/svg" width="112" height="25" viewBox="0 0 112 25"><g><g opacity="-1"><path fill="#fff" d="M89.026 17.873H87.59V2.194h1.436zm11.487 0h-1.436v-1.425s-1.818 1.607-4.494 1.607c-2.676 0-3.77-1.382-3.77-3.33 0-1.949 1.74-3.979 5.392-3.979h2.872V9.321s-.22-1.923-3.35-1.923-3.063 2.16-3.063 2.16l-1.38.005s.124-3.166 4.477-3.166c4.354 0 4.752 2.924 4.752 2.924v8.552zm-1.436-5.701h-2.872c-2.188 0-4.029 1.154-4.029 2.652 0 1.5 1.145 2.148 2.525 2.148s4.376-1.127 4.376-3.375zm2.872-5.702h1.436l3.663 9.676 3.516-9.676H112s-3.814 13.088-4.308 14.254c-.494 1.166-2.54 1.728-3.987 1.728-.651 0-1.302-.378-1.302-.378l.36-1s.325.178.964.178c.64 0 1.75-1.465 1.75-1.465l.809-1.91zm-16.003 5.667c0 4.12-2.188 5.918-5.015 5.918-2.777 0-3.349-1.535-3.393-1.607v5.701h-1.435V6.47h1.435v1.426c.045-.054.97-1.498 3.36-1.498 2.423 0 5.048 1.62 5.048 5.74zm-1.312.09c0-2.698-1.717-4.763-3.77-4.763-2.259 0-3.28 3.222-3.326 3.282v2.851c.045.072.837 3.426 3.157 3.426 2.357 0 3.939-2.1 3.939-4.797zM13.652 5.2l-.864.23.537-.872s-1.658-2.156-4.601-2.156-6.33 1.984-6.33 6.673c0 3.84 3.142 8.048 7.989 8.048 1.675 0 2.779-.62 2.779-.62v-3.439s-2.493-.028-3.434.207l1.76-1.1h5.743s-1.71.607-1.71 1.97v2.776s-3.609 1.169-6.82 1.169c-6.213 0-8.712-4.517-8.712-8.094 0-4.093 3.305-8.415 8.992-8.415 4.671 0 6.54 1.88 6.54 1.88zm15.58 6.91c0 3.373-2.545 5.767-6.175 5.767s-5.68-3.03-5.68-5.546c0-3.495 2.717-5.89 6.05-5.89 3.335 0 5.804 2.298 5.804 5.67zm-2.421 1.125c0-3.264-1.655-6.06-4.05-6.06-1.68 0-3.137 1.515-3.137 3.64 0 2.127 1.3 6.329 4.05 6.329 2.752 0 3.137-2.786 3.137-3.91zm15.39-1.121c0 3.37-2.543 5.763-6.171 5.763-3.629 0-5.677-3.028-5.677-5.544 0-3.492 2.715-5.886 6.047-5.886 3.333 0 5.8 2.297 5.8 5.667zm-2.419 1.123c0-3.261-1.654-6.057-4.048-6.057-1.679 0-3.135 1.514-3.135 3.639s1.298 6.326 4.048 6.326 3.135-2.785 3.135-3.908zm14.003 7.325c0 3.192-4.01 4.442-6.353 4.442s-5.2-.94-5.2-3.447c0-4.144 6.537-4.15 6.537-4.15s-.699-.716-.699-1.517c0-.492.172-.862.172-.862s-.197.06-.491.06c-2.834 0-4.269-2.001-4.269-3.676 0-2.379 2.184-4.588 5.079-4.588h5.641l-1.447.85-1.447.048s1.521.995 1.521 3.228c0 1.505-.773 2.337-1.62 3.132-.846.795-.858 1.08-.858 1.431 0 .352.233.741 1.423 1.554 1.19.813 2.011 1.972 2.011 3.495zm-3.072-8.513c0-2.822-1.619-4.37-2.98-4.37-1.362 0-2.135 1.093-2.135 2.622 0 1.53 1.362 4.06 3.073 4.06 1.711 0 2.042-1.33 2.042-2.312zm1.361 9.357c0-1.638-1.324-2.157-2.52-3.204 0 0-.387-.064-.838-.064-.45 0-4.332.246-4.332 2.885 0 2.64 3.367 2.95 4.158 2.95.791 0 3.532-.219 3.532-2.567zm2.49-19.212L55.527.75l3.345.018c-.825.436-1.415.819-1.436 2.851-.021 2.032 0 11.404 0 11.404 0 .774 1.029 1.91 1.642 1.91.559 0 .815.107.815.107l-1.021.833h-4.308s1.428-.882 1.436-1.425V2.194zm9.378 9.452l-1.89.098c.493 2.906 2.839 4.809 4.89 4.809 1.537 0 2.925-.81 2.925-.81s-1.314 2.134-4.215 2.134c-4.14 0-5.801-3.115-5.801-5.887 0-2.772 1.885-5.593 5.504-5.593 3.62 0 4.215 3.017 4.215 3.017zm-1.89.091c.318-.129 4.76-1.93 4.94-2.249.185-.331-.199-2.208-2.306-2.208-1.05 0-2.728.957-2.728 3.337 0 .388.033.762.093 1.12z"/></g></g></svg>