<svg xmlns="http://www.w3.org/2000/svg" width="40" height="40" viewBox="0 0 40 40"><defs><clipPath id="fz6ja"><path fill="" opacity="1" stroke="#fff" d="M22.828 1.615l15.557 15.557a4 4 0 0 1 0 5.656L22.828 38.385a4 4 0 0 1-5.656 0L1.615 22.828a4 4 0 0 1 0-5.656L17.172 1.615a4 4 0 0 1 5.656 0z"/></clipPath></defs><g><g><path d="M22.828 1.615l15.557 15.557a4 4 0 0 1 0 5.656L22.828 38.385a4 4 0 0 1-5.656 0L1.615 22.828a4 4 0 0 1 0-5.656L17.172 1.615a4 4 0 0 1 5.656 0z"/><path fill="rgba(124,240,10,0)" opacity="1" stroke="#fff" stroke-linecap="round" stroke-linejoin="round" stroke-miterlimit="20" stroke-width="4" d="M22.828 1.615l15.557 15.557a4 4 0 0 1 0 5.656L22.828 38.385a4 4 0 0 1-5.656 0L1.615 22.828a4 4 0 0 1 0-5.656L17.172 1.615a4 4 0 0 1 5.656 0z" clip-path="url(&quot;#fz6ja&quot;)"/></g></g></svg>