<svg xmlns="http://www.w3.org/2000/svg" width="40" height="40" viewBox="0 0 40 40"><defs><clipPath id="s4l5a"><path fill="#fff" d="M22.828 1.615l15.557 15.557a4 4 0 0 1 0 5.656L22.828 38.385a4 4 0 0 1-5.656 0L1.615 22.828a4 4 0 0 1 0-5.656L17.172 1.615a4 4 0 0 1 5.656 0z"/></clipPath></defs><g><g opacity="-1"><g><path d="M22.828 1.615l15.557 15.557a4 4 0 0 1 0 5.656L22.828 38.385a4 4 0 0 1-5.656 0L1.615 22.828a4 4 0 0 1 0-5.656L17.172 1.615a4 4 0 0 1 5.656 0z"/><path fill="none" stroke="#000" stroke-linecap="round" stroke-linejoin="round" stroke-miterlimit="20" stroke-width="4" d="M22.828 1.615l15.557 15.557a4 4 0 0 1 0 5.656L22.828 38.385a4 4 0 0 1-5.656 0L1.615 22.828a4 4 0 0 1 0-5.656L17.172 1.615a4 4 0 0 1 5.656 0z" clip-path="url(&quot;#s4l5a&quot;)"/></g><g><path d="M15.491 15.87c0-2.135 1.804-3.872 4.02-3.872 2.218 0 4.02 1.737 4.02 3.872 0 2.134-1.802 3.87-4.02 3.87-2.216 0-4.02-1.736-4.02-3.87zm2.356 0c0 .883.747 1.602 1.665 1.602s1.664-.719 1.664-1.602c0-.884-.746-1.603-1.664-1.603-.918 0-1.665.719-1.665 1.603zm5.539 9.192c.46.443.46 1.161 0 1.604a1.21 1.21 0 0 1-1.665 0l-2.21-2.127-2.208 2.127a1.2 1.2 0 0 1-.833.332c-.301 0-.602-.111-.833-.332a1.105 1.105 0 0 1 0-1.604l2.248-2.164a7.7 7.7 0 0 1-2.335-.931 1.11 1.11 0 0 1-.369-1.564 1.203 1.203 0 0 1 1.624-.357 5.271 5.271 0 0 0 5.413 0 1.204 1.204 0 0 1 1.624.357c.347.53.18 1.23-.37 1.564a7.688 7.688 0 0 1-2.334.93z"/></g></g></g></svg>